<?xml version="1.0" encoding="UTF-8" standalone="no"?>
<!-- Created with Inkscape (http://www.inkscape.org/) -->

<svg
   xmlns:dc="http://purl.org/dc/elements/1.1/"
   xmlns:cc="http://creativecommons.org/ns#"
   xmlns:rdf="http://www.w3.org/1999/02/22-rdf-syntax-ns#"
   xmlns:svg="http://www.w3.org/2000/svg"
   xmlns="http://www.w3.org/2000/svg"
   xmlns:sodipodi="http://sodipodi.sourceforge.net/DTD/sodipodi-0.dtd"
   xmlns:inkscape="http://www.inkscape.org/namespaces/inkscape"
   width="617.63678"
   height="613.92725"
   id="svg2"
   version="1.1"
   inkscape:version="0.48.0 r9654"
   sodipodi:docname="directiononespain.svg">
  <defs
     id="defs4" />
  <sodipodi:namedview
     id="base"
     pagecolor="#ffffff"
     bordercolor="#666666"
     borderopacity="1.0"
     inkscape:pageopacity="0.0"
     inkscape:pageshadow="2"
     inkscape:zoom="0.53915183"
     inkscape:cx="103.8171"
     inkscape:cy="268.48258"
     inkscape:document-units="px"
     inkscape:current-layer="layer1"
     showgrid="false"
     fit-margin-top="0"
     fit-margin-left="0"
     fit-margin-right="0"
     fit-margin-bottom="0"
     inkscape:window-width="1280"
     inkscape:window-height="750"
     inkscape:window-x="-8"
     inkscape:window-y="-8"
     inkscape:window-maximized="1" />
  <metadata
     id="metadata7">
    <rdf:RDF>
      <cc:Work
         rdf:about="">
        <dc:format>image/svg+xml</dc:format>
        <dc:type
           rdf:resource="http://purl.org/dc/dcmitype/StillImage" />
        <dc:title></dc:title>
      </cc:Work>
    </rdf:RDF>
  </metadata>
  <g
     inkscape:label="Capa 1"
     inkscape:groupmode="layer"
     id="layer1"
     transform="translate(-6.6938286,-251.62091)">
    <path
       sodipodi:type="arc"
       style="fill:#ffffff;fill-opacity:1;fill-rule:nonzero;stroke:none"
       id="path2986"
       sodipodi:cx="395.99234"
       sodipodi:cy="392.28281"
       sodipodi:rx="297.68979"
       sodipodi:ry="297.68979"
       d="m 693.68213,392.28281 a 297.68979,297.68979 0 1 1 -595.379579,0 297.68979,297.68979 0 1 1 595.379579,0 z"
       transform="matrix(0,1.012461,-1.012461,0,714.53799,155.65771)" />
    <path
       inkscape:connector-curvature="0"
       id="path3054"
       d="m -57.763206,176.97146 c 0.7179,0.71794 0.7946,2.58141 0.1705,4.14106 -0.6897,1.72355 -1.2016,1.21159 -1.3053,-1.30533 -0.094,-2.27759 0.4168,-3.55366 1.1348,-2.83573 z M 16.74952,538.27897 c 4.55935,-70.8638 35.59803,-138.5692 87.21405,-190.24225 59.73789,-59.80388 131.45844,-89.54939 215.91594,-89.54939 167.09724,0 301.62608,134.90853 301.62608,302.47744 0,82.36991 -30.21784,155.42101 -88.49453,213.93401 -58.02485,58.26019 -130.62624,88.56399 -212.90261,88.86559 -49.53023,0.1814 -93.8536,-9.8646 -135.16586,-30.636 C 72.825511,776.75698 8.6448399,664.24568 16.74952,538.27897 z m 8.04169,87.50241 c 21.63563,92.2833 80.16337,166.1104 163.52351,206.26899 41.19617,19.8462 71.16332,26.9701 120.25488,28.5877 28.2972,0.9324 40.77042,0.3916 58.33493,-2.5293 61.93529,-10.2996 115.5626,-37.45709 160.7173,-81.38929 27.18906,-26.4529 44.98038,-51.0063 61.62073,-85.0413 22.71734,-46.4644 31.6459,-90.26611 29.43696,-144.41171 -3.14873,-77.1819 -32.15385,-142.64088 -87.77874,-198.09981 -44.43917,-44.30658 -91.62752,-69.92975 -153.53768,-83.37061 -25.92988,-5.62945 -90.6194,-5.70974 -116.66986,-0.1448 -58.77089,12.5547 -108.13481,38.74799 -150.51194,79.86404 -46.55324,45.16791 -76.62429,101.32508 -88.1809,164.67648 -4.59675,25.1986 -3.01192,90.8389 2.79081,115.58961 z m 9.37736,-85.34191 c 3.82293,-64.2689 31.10127,-126.36772 76.31123,-173.7214 41.59218,-43.56433 85.94364,-69.55072 143.13992,-83.86844 20.99524,-5.25565 27.19685,-5.83537 63.2479,-5.9123 30.37417,-0.0648 44.21928,0.83209 57.66874,3.73589 87.39734,18.86948 159.97549,74.5045 199.35848,152.81885 22.48848,44.7191 29.27755,74.8997 29.16074,129.6332 -0.0769,36.0511 -0.65665,42.2527 -5.9123,63.24791 -28.18647,112.599 -117.81449,197.0065 -229.95649,216.56249 -24.16555,4.2141 -72.47634,4.1556 -97.02819,-0.1174 C 169.22686,825.25197 83.535411,752.72428 49.46725,656.02918 36.20412,618.38467 31.60095,583.60527 34.16857,540.43957 z m 188.71499,65.8969 c 79.59726,0 115.58959,0.7094 115.58959,2.2781 0,1.253 -2.91675,14.483 -6.48166,29.39991 -3.56491,14.917 -6.48166,30.301 -6.48166,34.1867 0,8.5033 4.46416,12.8467 11.05408,10.7551 7.77019,-2.4661 190.95761,-119.24371 190.95761,-121.73081 0,-2.476 -176.90604,-115.4801 -188.69702,-120.536 -15.16119,-6.5011 -16.58022,2.5484 -6.83301,43.5757 3.56491,15.0052 6.48166,28.1926 6.48166,29.3051 0,1.2317 -45.21405,2.023 -115.58959,2.023 l -115.58958,0 0,45.3716 0,45.3716 115.58958,0 z"
       style="fill:#124f90" />
  </g>
</svg>
