<?xml version="1.0" encoding="UTF-8" standalone="no"?>
<!-- Created with Inkscape (http://www.inkscape.org/) -->

<svg
   xmlns:dc="http://purl.org/dc/elements/1.1/"
   xmlns:cc="http://creativecommons.org/ns#"
   xmlns:rdf="http://www.w3.org/1999/02/22-rdf-syntax-ns#"
   xmlns:svg="http://www.w3.org/2000/svg"
   xmlns="http://www.w3.org/2000/svg"
   xmlns:sodipodi="http://sodipodi.sourceforge.net/DTD/sodipodi-0.dtd"
   xmlns:inkscape="http://www.inkscape.org/namespaces/inkscape"
   width="678.02466"
   height="670.93048"
   id="svg2"
   version="1.1"
   inkscape:version="0.48.0 r9654"
   sodipodi:docname="señal luces obligatorias r-413.svg">
  <defs
     id="defs4" />
  <sodipodi:namedview
     id="base"
     pagecolor="#ffffff"
     bordercolor="#666666"
     borderopacity="1.0"
     inkscape:pageopacity="0.0"
     inkscape:pageshadow="2"
     inkscape:zoom="0.7"
     inkscape:cx="588.84154"
     inkscape:cy="355.21732"
     inkscape:document-units="px"
     inkscape:current-layer="layer1"
     showgrid="false"
     fit-margin-top="0"
     fit-margin-left="0"
     fit-margin-right="0"
     fit-margin-bottom="0"
     inkscape:window-width="1280"
     inkscape:window-height="750"
     inkscape:window-x="-8"
     inkscape:window-y="-8"
     inkscape:window-maximized="1" />
  <metadata
     id="metadata7">
    <rdf:RDF>
      <cc:Work
         rdf:about="">
        <dc:format>image/svg+xml</dc:format>
        <dc:type
           rdf:resource="http://purl.org/dc/dcmitype/StillImage" />
        <dc:title></dc:title>
      </cc:Work>
    </rdf:RDF>
  </metadata>
  <g
     inkscape:label="Capa 1"
     inkscape:groupmode="layer"
     id="layer1"
     transform="translate(-24.684594,-76.980789)">
    <path
       sodipodi:type="arc"
       style="fill:#ffffff;fill-opacity:1;fill-rule:nonzero;stroke:#0000ff;stroke-width:1;stroke-linecap:round;stroke-linejoin:round;stroke-miterlimit:4;stroke-opacity:1;stroke-dasharray:none;stroke-dashoffset:0"
       id="path3004"
       sodipodi:cx="395"
       sodipodi:cy="363.07333"
       sodipodi:rx="310.71429"
       sodipodi:ry="310.71429"
       d="m 705.71429,363.07333 a 310.71429,310.71429 0 1 1 -621.428584,0 310.71429,310.71429 0 1 1 621.428584,0 z"
       transform="matrix(1.0757402,0,0,1.0757402,-57.375637,23.052977)" />
    <path
       inkscape:connector-curvature="0"
       id="path2998"
       d="m 24.89186,746.7243 c 0.7437,-0.7437 2.674057,-0.8232 4.289682,-0.17668 1.785402,0.71445 1.255071,1.24478 -1.352182,1.35217 -2.359326,0.0971 -3.681201,-0.4318 -2.9375,-1.17549 z m 295.94147,-1.90525 C 247.77587,732.47318 189.07382,704.45046 140.01719,658.50247 85.471327,607.41311 51.990598,547.94533 37.733984,476.82914 c -2.472742,-12.33475 -5.347336,-34.1059 -4.495894,-30.01832 2.142857,10.28739 -0.440387,9.48955 -1.738706,-12.84148 -0.725693,-12.4819 -1.168376,22.89914 0.166422,-25.63095 1.022019,-37.15818 1.48157,-24.72181 2.129253,-30.35715 1.732741,-15.07619 -0.947366,5.08274 -0.876426,9.08333 0.220663,12.44422 -0.338131,-3.09295 1.317747,-17.78571 7.92587,-70.32697 42.450908,-139.73955 96.0979,-193.20481 40.60786,-40.4703 79.37482,-64.38746 133.64731,-82.453297 142.96114,-47.58791 301.46034,9.436377 385.16904,138.574767 15.11153,23.31271 25.14234,44.45496 35.72265,75.2938 9.35295,27.26137 17.35315,83.855 17.81865,116.9443 0.41875,29.7675 -6.8805,-15.72698 -8.52315,-32.59524 C 686.41244,312.18999 646.22455,222.91497 590.00145,171.75774 488.2786,79.200453 340.75061,58.406574 220.11904,119.6233 154.13688,153.10717 106.93083,200.02224 74.694665,264.15127 52.963566,307.38205 43.516966,341.68269 40.195133,389.41925 c -4.244751,60.9994 6.712574,115.94668 33.808489,169.53818 34.243588,67.7285 82.903888,115.9226 149.576778,148.14372 40.35607,19.50296 75.73575,28.8407 120.28027,31.7455 73.8889,4.81842 141.61172,-12.76144 203.38183,-52.79497 83.87831,-54.36197 142.00861,-157.14643 148.32018,-258.35615 1.83419,-29.41235 9.12348,-18.78903 4.28943,19.14285 l -5.44656,42.7381 -9.23709,27.10844 c -18.49025,54.26389 -41.81875,91.73493 -82.03316,131.76445 -51.53912,51.30216 -104.9262,79.69607 -177.11149,94.19676 -24.27805,4.87701 -82.11853,6.07182 -105.19048,2.17292 z M 338.7381,721.98141 C 243.48027,710.55583 163.64584,663.93677 111.9526,589.55076 98.770713,570.58217 78.666714,530.68866 71.579445,509.43599 54.161347,457.20415 51.672064,396.88489 64.642455,341.34181 102.16345,180.66568 261.63068,76.623465 423.54673,107.17959 c 126.08362,23.79398 223.71504,122.07969 248.96279,250.63127 5.2516,26.73904 5.25935,79.38065 0.0157,108.26562 -24.22416,133.44661 -131.62619,236.33883 -265.26964,254.13093 -21.9467,2.92179 -52.37922,3.70973 -68.51772,1.774 z m 76.61045,-148.7881 c 13.79322,-6.51646 20.67281,-10.99957 20.70238,-13.49079 0.0668,-5.62734 -8.42088,-24.24509 -11.05315,-24.24509 -3.18967,0 -98.56921,47.76456 -98.56921,49.36189 0,0.71017 6.13986,4.9234 13.64415,9.36273 l 13.64412,8.07154 20.48683,-9.65031 c 11.26774,-5.30767 29.78294,-14.04215 41.14488,-19.40997 z m -55.81611,-31.16185 c 31.64644,-16.07951 58.39021,-30.07394 59.43058,-31.09872 2.77585,-2.73426 -3.16314,-26.9515 -6.60954,-26.9515 -3.61902,0 -139.6789,67.51591 -139.53031,69.23803 0.13965,1.61834 25.05028,18.01295 27.39975,18.03276 0.97379,0.009 27.66308,-13.14104 59.30952,-29.22057 z m 149.4833,12.3264 c 41.51855,-9.6288 74.27406,-36.10782 94.65299,-76.51594 9.71833,-19.26991 13.82167,-36.39351 14.08196,-58.76544 0.64755,-55.65367 -33.57442,-108.54906 -83.73983,-129.43296 -30.52149,-12.70612 -64.79564,-14.6858 -71.70443,-4.14165 -6.14713,9.38173 -19.22759,47.62024 -24.28902,71.00492 -6.74379,31.15744 -7.31464,95.35306 -1.12359,126.3554 6.17709,30.93252 18.66173,67.53001 24.41034,71.5565 6.40532,4.48646 28.22395,4.45864 47.71158,-0.0609 z m -179.23003,-57.6203 80.57144,-40.73251 -0.69108,-14.49267 c -0.3801,-7.97098 -0.97557,-14.77714 -1.32323,-15.12483 -1.25092,-1.25092 -189.27347,92.32298 -188.75486,93.93832 0.9241,2.87837 22.76322,17.12255 26.26916,17.13361 1.84643,0.007 39.61429,-18.31906 83.92857,-40.72192 z m -30.2026,-43.91074 c 59.37486,-29.44445 108.75245,-54.37124 109.72799,-55.39286 2.81875,-2.95187 5.2722,-32.07177 2.70217,-32.07177 -5.2768,0 -246.85124,121.60514 -246.09304,123.87976 0.61125,1.83374 23.19413,17.04332 25.40609,17.11098 0.16638,0.004 48.88194,-24.08166 108.25679,-53.52611 z M 195.91624,445.2029 c 30.54488,-15.17332 93.94993,-46.52042 140.90016,-69.6602 l 85.364,-42.07234 4.90288,-16.51535 c 2.69657,-9.08345 4.56847,-17.39009 4.15979,-18.4592 -0.4087,-1.06911 -17.8645,6.4883 -38.79069,16.79426 -75.37795,37.1229 -226.59714,111.04585 -254.56113,124.44127 -15.70686,7.52399 -28.55792,14.36846 -28.55792,15.20997 0,2.08982 25.05771,17.84945 28.38053,17.84945 1.46643,0 27.6575,-12.41453 58.20238,-27.58786 z"
       style="fill:#092d78;fill-opacity:1"
       sodipodi:nodetypes="sscsssssssssssssssssssssssssscsssscsssssssccssssscsssssscscsssssssccscscscssssscssscscsssss" />
  </g>
</svg>
